<svg xmlns="http://www.w3.org/2000/svg" width="63.74" height="62.28" viewBox="0 0 63.74 62.28">
  <g id="Layer_2" data-name="Layer 2">
    <g id="text2">
      <g>
        <ellipse cx="31.87" cy="31.14" rx="31.65" ry="30.93" fill="none" stroke="#141613" stroke-miterlimit="10" stroke-width="0.43"/>
        <g>
          <path d="M41.58,27.34A9.83,9.83,0,0,0,41.86,25a10,10,0,0,0-20,0,9.84,9.84,0,0,0,.29,2.36,14.84,14.84,0,0,0,1.09,3.89c1,2.06,5.11,8.87,7,12-2.56.32-3.75,1.43-3.75,2.46,0,1.24,1.67,2.57,5.36,2.57s5.36-1.33,5.36-2.57c0-1-1.19-2.14-3.75-2.46,1.89-3.11,6-9.92,7-12A15.24,15.24,0,0,0,41.58,27.34ZM35.69,45.67c-.11.3-1.4,1-3.82,1s-3.75-.75-3.82-1,1.12-.88,3.11-1l.05.08a.77.77,0,0,0,.66.37.76.76,0,0,0,.65-.37l0-.08C34.54,44.8,35.59,45.41,35.69,45.67ZM40.07,27s0,0,0,.06a13.68,13.68,0,0,1-1,3.5c-1,2.08-5.51,9.51-7.22,12.3-1.71-2.79-6.24-10.22-7.23-12.3a13.73,13.73,0,0,1-1-3.5s0,0,0-.06a8.73,8.73,0,0,1-.24-2,8.45,8.45,0,0,1,16.9,0A8.74,8.74,0,0,1,40.07,27Z" fill="#141613"/>
          <path d="M31.87,19.36a5.37,5.37,0,1,0,5.36,5.37A5.37,5.37,0,0,0,31.87,19.36Zm0,9.19a3.82,3.82,0,1,1,3.82-3.82A3.83,3.83,0,0,1,31.87,28.55Z" fill="#141613"/>
        </g>
      </g>
    </g>
  </g>
</svg>
