<svg xmlns="http://www.w3.org/2000/svg" width="63.74" height="61.69" viewBox="0 0 63.74 61.69">
  <g id="Layer_2" data-name="Layer 2">
    <g id="text3">
      <g>
        <ellipse cx="31.87" cy="30.85" rx="31.65" ry="30.63" fill="none" stroke="#141613" stroke-miterlimit="10" stroke-width="0.43"/>
        <g>
          <path d="M31.87,13.28a8.71,8.71,0,1,0,0,17.42h0a8.71,8.71,0,0,0,0-17.42ZM36.4,26.52a6.39,6.39,0,0,1-4.53,1.88h0a6.4,6.4,0,0,1-4.53-10.93,6.33,6.33,0,0,1,4.53-1.88A6.41,6.41,0,0,1,36.4,26.52Z" fill="#141613"/>
          <path d="M22,44H41.75a1.16,1.16,0,0,0,1.15-1.12c0-.31.2-7.66-4.43-11.9A1.15,1.15,0,0,0,37,31c-.05,0-5.16,3.89-9.92,0a1.16,1.16,0,0,0-1.49,0c-.18.16-4.64,4.12-4.75,11.88a1.16,1.16,0,0,0,.33.83A1.15,1.15,0,0,0,22,44Zm4.49-10.66a10.33,10.33,0,0,0,11.08,0c2.34,2.65,2.89,6.5,3,8.37H23.19A14.62,14.62,0,0,1,26.47,33.38Z" fill="#141613"/>
        </g>
      </g>
    </g>
  </g>
</svg>
