<svg xmlns="http://www.w3.org/2000/svg" width="63" height="62.77" viewBox="0 0 63 62.77">
  <g id="Layer_2" data-name="Layer 2">
    <g id="text4">
      <g>
        <path d="M31.5,62.55h0A31.22,31.22,0,0,1,.22,31.38h0A31.22,31.22,0,0,1,31.5.22h0A31.22,31.22,0,0,1,62.78,31.38h0A31.22,31.22,0,0,1,31.5,62.55Z" fill="none" stroke="#141613" stroke-miterlimit="10" stroke-width="0.43"/>
        <path d="M45.35,20a9.61,9.61,0,0,0-10.69-1.66l-.58.28L31.5,19.9l-2.59-1.33-.57-.28A9.61,9.61,0,0,0,17.64,20a10.48,10.48,0,0,0-3,11,9.91,9.91,0,0,0,3.48,4.66L31.5,45.63,44.86,35.57a9.91,9.91,0,0,0,3.48-4.66A10.48,10.48,0,0,0,45.35,20Z" fill="#141613"/>
      </g>
    </g>
  </g>
</svg>
